<svg id="Layer_1" data-name="Layer 1" xmlns="http://www.w3.org/2000/svg" viewBox="0 0 32 32"><title>mail ui icon</title><path d="M30,3H2A1,1,0,0,0,1,4V28a1,1,0,0,0,1,1H30a1,1,0,0,0,1-1V4A1,1,0,0,0,30,3ZM27.11,5,16,13.73,4.89,5ZM3,27V6.06l12.38,9.73a1,1,0,0,0,1.24,0L29,6.06V27Z" id="id_101" style="fill: rgb(255, 255, 255);"></path><path d="M25.75,19h-7.5a1,1,0,0,0,0,2h7.5a1,1,0,0,0,0-2Z" id="id_102" style="fill: rgb(255, 255, 255);"></path><path d="M25.75,22h-7.5a1,1,0,0,0,0,2h7.5a1,1,0,0,0,0-2Z" id="id_103" style="fill: rgb(255, 255, 255);"></path></svg>